<svg width="18" height="17" viewBox="0 0 18 17" fill="none" xmlns="http://www.w3.org/2000/svg">
<g clip-path="url(#clip0_81305:454)">
<path d="M13.7728 7.79834H4.51878C3.78866 7.79834 3.19678 8.43841 3.19678 9.22799V14.2317C3.19678 15.0213 3.78866 15.6614 4.51878 15.6614H13.7728C14.5029 15.6614 15.0948 15.0213 15.0948 14.2317V9.22799C15.0948 8.43841 14.5029 7.79834 13.7728 7.79834Z" stroke="#666360" stroke-width="1.5" stroke-linecap="round" stroke-linejoin="round"/>
<path d="M5.74609 7.79835V5.0026C5.74609 4.07575 6.10425 3.18686 6.74176 2.53148C7.37928 1.87609 8.24394 1.5079 9.14552 1.5079C10.0471 1.5079 10.9118 1.87609 11.5493 2.53148C12.1868 3.18686 12.5449 4.07575 12.5449 5.0026V7.79835" stroke="#666360" stroke-width="1.5" stroke-linecap="round" stroke-linejoin="round"/>
</g>
<defs>
<clipPath id="clip0_81305:454">
<rect width="16.9971" height="15.7261" fill="white" transform="translate(0.646973 0.721588)"/>
</clipPath>
</defs>
</svg>
